<svg xmlns="http://www.w3.org/2000/svg" xmlns:xlink="http://www.w3.org/1999/xlink" width="194" height="61" version="1.1" viewBox="0 0 194 61"><title>JIRA-help-graphic-connected</title><desc>Created with Sketch.</desc><g id="Page-1" fill="none" fill-rule="evenodd" stroke="none" stroke-width="1"><g id="JIRA-help-graphic-connected" stroke-width="2"><g id="Group-2" stroke="#CCC" transform="translate(0.500000, 0.887712)"><circle id="Oval-31" cx="30" cy="30" r="30" fill="#FFF"/><path id="Path-198" d="M5.50403002,14 L29.0181908,14 C30.1239909,14 31.0204191,14.8970607 31.0204191,16.00586 L31.0204191,25.9941496 C31.0204191,27.1019555 30.1219675,28.0000096 29.0274465,28.0000096 L1,28.0000096"/><path id="Path-200" d="M39,14 L56.5195097,14 C57.6223557,14 58.516389,14.8970607 58.516389,16.00586 L58.516389,25.9941496 C58.516389,27.1019555 57.6217756,28.0000096 56.5217934,28.0000096 L43.49597,28.0000096" transform="translate(48.758195, 21.000005) rotate(-180.000000) translate(-48.758195, -21.000005)"/><path id="Path-201" stroke-dasharray="2" d="M44.50403,34 L56.0260293,34 C57.1275004,34 58.0204191,34.8970607 58.0204191,36.00586 L58.0204191,45.9941496 C58.0204191,47.1019555 57.1285362,48.0000096 56.0208506,48.0000096 L39,48.0000096" transform="translate(48.510210, 41.000005) rotate(-180.000000) translate(-48.510210, -41.000005)"/><path id="Path-199" d="M1.50403002,34 L29.0148432,34 C30.1224922,34 31.0204191,34.8970607 31.0204191,36.00586 L31.0204191,45.9941496 C31.0204191,47.1019555 30.1226296,48.0000096 29.0137667,48.0000096 L7,48.0000096"/></g><rect id="Rectangle-61" width="30" height="2" x="63" y="27" fill="#999"/><g id="dotted-line" fill="#999" transform="translate(95.000000, 27.000000)"><rect id="Rectangle-60" width="2" height="1.966" x="0" y="0"/><rect id="Rectangle-61" width="2" height="1.966" x="4" y="0"/><rect id="Rectangle-62" width="2" height="1.966" x="8" y="0"/><rect id="Rectangle-63" width="2" height="1.966" x="12" y="0"/><rect id="Rectangle-64" width="2" height="1.966" x="16" y="0"/><rect id="Rectangle-65" width="2" height="1.966" x="20" y="0"/><rect id="Rectangle-66" width="2" height="1.966" x="24" y="0"/></g><g id="slack-logo" transform="translate(127.000000, -0.000000)"><g id="Group" fill="#E01E5A" transform="translate(0.000000, 30.000000)"><path id="Path" d="M12.5288136,6.26440678 C12.5288136,9.63389831 9.77627119,12.3864407 6.40677966,12.3864407 C3.03728814,12.3864407 0.284745763,9.63389831 0.284745763,6.26440678 C0.284745763,2.89491525 3.03728814,0.142372881 6.40677966,0.142372881 L12.5288136,0.142372881 L12.5288136,6.26440678 Z"/><path id="Path" d="M15.6135593,6.26440678 C15.6135593,2.89491525 18.3661017,0.142372881 21.7355932,0.142372881 C25.1050847,0.142372881 27.8576271,2.89491525 27.8576271,6.26440678 L27.8576271,21.5932203 C27.8576271,24.9627119 25.1050847,27.7152542 21.7355932,27.7152542 C18.3661017,27.7152542 15.6135593,24.9627119 15.6135593,21.5932203 L15.6135593,6.26440678 Z"/></g><g id="Group" fill="#36C5F0"><path id="Path" d="M21.7355932,12.5288136 C18.3661017,12.5288136 15.6135593,9.77627119 15.6135593,6.40677966 C15.6135593,3.03728814 18.3661017,0.284745763 21.7355932,0.284745763 C25.1050847,0.284745763 27.8576271,3.03728814 27.8576271,6.40677966 L27.8576271,12.5288136 L21.7355932,12.5288136 Z"/><path id="Path" d="M21.7355932,15.6135593 C25.1050847,15.6135593 27.8576271,18.3661017 27.8576271,21.7355932 C27.8576271,25.1050847 25.1050847,27.8576271 21.7355932,27.8576271 L6.40677966,27.8576271 C3.03728814,27.8576271 0.284745763,25.1050847 0.284745763,21.7355932 C0.284745763,18.3661017 3.03728814,15.6135593 6.40677966,15.6135593 L21.7355932,15.6135593 Z"/></g><g id="Group" fill="#2EB67D" transform="translate(30.000000, 0.000000)"><path id="Path" d="M15.4711864,21.7355932 C15.4711864,18.3661017 18.2237288,15.6135593 21.5932203,15.6135593 C24.9627119,15.6135593 27.7152542,18.3661017 27.7152542,21.7355932 C27.7152542,25.1050847 24.9627119,27.8576271 21.5932203,27.8576271 L15.4711864,27.8576271 L15.4711864,21.7355932 Z"/><path id="Path" d="M12.3864407,21.7355932 C12.3864407,25.1050847 9.63389831,27.8576271 6.26440678,27.8576271 C2.89491525,27.8576271 0.142372881,25.1050847 0.142372881,21.7355932 L0.142372881,6.40677966 C0.142372881,3.03728814 2.89491525,0.284745763 6.26440678,0.284745763 C9.63389831,0.284745763 12.3864407,3.03728814 12.3864407,6.40677966 L12.3864407,21.7355932 Z"/></g><g id="Group" fill="#ECB22E" transform="translate(30.000000, 30.000000)"><path id="Path" d="M6.26440678,15.4711864 C9.63389831,15.4711864 12.3864407,18.2237288 12.3864407,21.5932203 C12.3864407,24.9627119 9.63389831,27.7152542 6.26440678,27.7152542 C2.89491525,27.7152542 0.142372881,24.9627119 0.142372881,21.5932203 L0.142372881,15.4711864 L6.26440678,15.4711864 Z"/><path id="Path" d="M6.26440678,12.3864407 C2.89491525,12.3864407 0.142372881,9.63389831 0.142372881,6.26440678 C0.142372881,2.89491525 2.89491525,0.142372881 6.26440678,0.142372881 L21.5932203,0.142372881 C24.9627119,0.142372881 27.7152542,2.89491525 27.7152542,6.26440678 C27.7152542,9.63389831 24.9627119,12.3864407 21.5932203,12.3864407 L6.26440678,12.3864407 Z"/></g></g></g></g></svg>